<svg height="35" fill="grey" viewBox="0 0 448 448" width="35" xmlns="http://www.w3.org/2000/svg"><path d="m224 88c-75.109375 0-136 60.890625-136 136s60.890625 136 136 136 136-60.890625 136-136c-.082031-75.074219-60.925781-135.917969-136-136zm0 264c-70.691406 0-128-57.308594-128-128s57.308594-128 128-128 128 57.308594 128 128c-.082031 70.65625-57.34375 127.917969-128 128zm0 0"/><path d="m224 0c-123.710938 0-224 100.289062-224 224s100.289062 224 224 224 224-100.289062 224-224c-.140625-123.652344-100.347656-223.859375-224-224zm0 432c-114.820312-.128906-207.871094-93.179688-208-208 0-4.417969 3.582031-8 8-8s8 3.582031 8 8c.125 105.988281 86.011719 191.875 192 192 4.417969 0 8 3.582031 8 8s-3.582031 8-8 8zm66.542969-10.910156c-10.886719 3.675781-22.0625 6.441406-33.40625 8.269531-.421875.070313-.851563.105469-1.28125.105469-4.179688.011718-7.664063-3.203125-7.996094-7.371094-.328125-4.167969 2.609375-7.886719 6.742187-8.535156 10.460938-1.679688 20.765626-4.234375 30.804688-7.628906 4.199219-1.421876 8.75.832031 10.167969 5.03125 1.421875 4.195312-.832031 8.75-5.03125 10.167968zm125.457031-189.089844h-40.40625c-4.339844 82.273438-73.433594 146.117188-155.792969 143.949219-82.359375-2.171875-148-69.558594-148-151.949219s65.640625-149.777344 148-151.949219c82.359375-2.167969 151.453125 61.675781 155.792969 143.949219h40.40625c4.417969 0 8 3.582031 8 8s-3.582031 8-8 8zm0 0"/><path d="m235.335938 190.855469-5.679688 5.679687c-3.125 3.125-8.1875 3.125-11.3125 0l-5.679688-5.679687c-5.976562-6.003907-14.109374-9.367188-22.585937-9.335938-8.507813-.007812-16.671875 3.359375-22.695313 9.367188-12.46875 12.492187-12.46875 32.726562 0 45.21875l56.617188 56.582031 56.585938-56.582031c12.492187-12.496094 12.492187-32.753907 0-45.25-12.683594-12.03125-32.566407-12.03125-45.25 0zm0 0"/><path d="m224 112c-61.855469 0-112 50.144531-112 112s50.144531 112 112 112 112-50.144531 112-112c-.066406-61.828125-50.171875-111.933594-112-112zm67.894531 135.414062-62.238281 62.242188c-3.125 3.121094-8.1875 3.121094-11.3125 0l-62.238281-62.242188c-18.742188-18.746093-18.738281-49.140624.011719-67.882812 18.746093-18.742188 49.140624-18.734375 67.882812.011719 18.835938-18.191407 48.773438-17.929688 67.289062.585937 18.511719 18.515625 18.773438 48.453125.582032 67.285156zm0 0"/></svg>